<svg id="visual" viewBox="0 0 900 600" width="900" height="600" xmlns="http://www.w3.org/2000/svg" xmlns:xlink="http://www.w3.org/1999/xlink" version="1.1"><rect x="0" y="0" width="900" height="600" fill="#200021"></rect><defs><linearGradient id="grad1_0" x1="33.3%" y1="0%" x2="100%" y2="100%"><stop offset="20%" stop-color="#eb7bd7" stop-opacity="1"></stop><stop offset="80%" stop-color="#eb7bd7" stop-opacity="1"></stop></linearGradient></defs><defs><linearGradient id="grad1_1" x1="33.3%" y1="0%" x2="100%" y2="100%"><stop offset="20%" stop-color="#eb7bd7" stop-opacity="1"></stop><stop offset="80%" stop-color="#7b3b77" stop-opacity="1"></stop></linearGradient></defs><defs><linearGradient id="grad1_2" x1="33.3%" y1="0%" x2="100%" y2="100%"><stop offset="20%" stop-color="#200021" stop-opacity="1"></stop><stop offset="80%" stop-color="#7b3b77" stop-opacity="1"></stop></linearGradient></defs><defs><linearGradient id="grad2_0" x1="0%" y1="0%" x2="66.7%" y2="100%"><stop offset="20%" stop-color="#eb7bd7" stop-opacity="1"></stop><stop offset="80%" stop-color="#eb7bd7" stop-opacity="1"></stop></linearGradient></defs><defs><linearGradient id="grad2_1" x1="0%" y1="0%" x2="66.7%" y2="100%"><stop offset="20%" stop-color="#7b3b77" stop-opacity="1"></stop><stop offset="80%" stop-color="#eb7bd7" stop-opacity="1"></stop></linearGradient></defs><defs><linearGradient id="grad2_2" x1="0%" y1="0%" x2="66.7%" y2="100%"><stop offset="20%" stop-color="#7b3b77" stop-opacity="1"></stop><stop offset="80%" stop-color="#200021" stop-opacity="1"></stop></linearGradient></defs><g transform="translate(900, 0)"><path d="M0 378.6C-41 371.1 -82 363.6 -110 338.6C-138 313.5 -152.9 271 -180.5 248.4C-208 225.8 -248.1 223.1 -282.3 205.1C-316.6 187.1 -345 153.7 -360.1 117C-375.1 80.2 -376.8 40.1 -378.6 0L0 0Z" fill="#4a1e4a"></path><path d="M0 252.4C-27.3 247.4 -54.7 242.4 -73.3 225.7C-92 209 -101.9 180.6 -120.3 165.6C-138.7 150.5 -165.4 148.8 -188.2 136.8C-211.1 124.8 -230 102.5 -240 78C-250.1 53.5 -251.2 26.7 -252.4 0L0 0Z" fill="#b15aa6"></path><path d="M0 126.2C-13.7 123.7 -27.3 121.2 -36.7 112.9C-46 104.5 -51 90.3 -60.2 82.8C-69.3 75.3 -82.7 74.4 -94.1 68.4C-105.5 62.4 -115 51.2 -120 39C-125 26.7 -125.6 13.4 -126.2 0L0 0Z" fill="#eb7bd7"></path></g><g transform="translate(0, 600)"><path d="M0 -378.6C39.9 -372.2 79.9 -365.8 112.8 -347.1C145.7 -328.5 171.6 -297.6 198.1 -272.6C224.6 -247.6 251.8 -228.5 281.5 -204.5C311.2 -180.6 343.5 -151.9 360.1 -117C376.6 -82.1 377.6 -41 378.6 0L0 0Z" fill="#4a1e4a"></path><path d="M0 -252.4C26.6 -248.1 53.3 -243.8 75.2 -231.4C97.1 -219 114.4 -198.4 132.1 -181.8C149.7 -165.1 167.9 -152.3 187.7 -136.4C207.5 -120.4 229 -101.3 240 -78C251.1 -54.7 251.7 -27.4 252.4 0L0 0Z" fill="#b15aa6"></path><path d="M0 -126.2C13.3 -124.1 26.6 -121.9 37.6 -115.7C48.6 -109.5 57.2 -99.2 66 -90.9C74.9 -82.5 83.9 -76.2 93.8 -68.2C103.7 -60.2 114.5 -50.6 120 -39C125.5 -27.4 125.9 -13.7 126.2 0L0 0Z" fill="#eb7bd7"></path></g></svg>